<svg xmlns="http://www.w3.org/2000/svg" width="512" height="512" viewBox="0 0 512 512">
  <defs><linearGradient id="g" x1="0" x2="1" y1="0" y2="1"><stop offset="0%" stop-color="#8b7bff"/><stop offset="100%" stop-color="#5b4fff"/></linearGradient></defs>
  <rect width="512" height="512" rx="110" fill="url(#g)"/>
  <rect x="92" y="84" width="328" height="344" rx="32" fill="#fff" opacity=".98"/>
  <rect x="128" y="136" width="188" height="28" rx="14" fill="#dcd8ff"/>
  <rect x="128" y="190" width="256" height="20" rx="10" fill="#ece9ff"/>
  <rect x="128" y="232" width="256" height="20" rx="10" fill="#ece9ff"/>
  <rect x="128" y="274" width="152" height="20" rx="10" fill="#ece9ff"/>
  <rect x="128" y="334" width="128" height="48" rx="18" fill="#5b4fff"/>
  <path d="M334 336h36c22 0 40-18 40-40v-14c0-22-18-40-40-40h-28c-11 0-20-9-20-20v-2c0-11 9-20 20-20h62" fill="none" stroke="#5b4fff" stroke-linecap="round" stroke-linejoin="round" stroke-width="24"/>
</svg>
